<?xml version="1.0" encoding="utf-8"?>
<!-- Generator: Adobe Illustrator 16.0.0, SVG Export Plug-In . SVG Version: 6.00 Build 0)  -->
<!DOCTYPE svg PUBLIC "-//W3C//DTD SVG 1.1//EN" "http://www.w3.org/Graphics/SVG/1.1/DTD/svg11.dtd">
<svg version="1.1" id="Layer_1" xmlns="http://www.w3.org/2000/svg" xmlns:xlink="http://www.w3.org/1999/xlink" x="0px" y="0px"
	 width="190.714px" height="44.987px" viewBox="0 0 190.714 44.987" enable-background="new 0 0 190.714 44.987"
	 xml:space="preserve">
<path fill="#FFFFFF" d="M0,0v44.987h190.714V0H0z M186.917,41.403H3.586V3.804h183.33V41.403z"/>
<g>
	<path fill="#FFFFFF" d="M10.744,18.921h-3.62v-1.942h9.596v1.942h-3.657v10.765h-2.319V18.921z"/>
	<path fill="#FFFFFF" d="M24.207,16.979v5.09h5.373v-5.09h2.318v12.707H29.58v-5.599h-5.373v5.599h-2.319V16.979H24.207z"/>
	<path fill="#FFFFFF" d="M45.342,24.049h-4.788v3.732h5.354v1.904h-7.673V16.979h7.39v1.904h-5.071v3.28h4.788V24.049z"/>
	<path fill="#FFFFFF" d="M61.52,16.979v5.09h5.373v-5.09h2.319v12.707h-2.319v-5.599H61.52v5.599h-2.319V16.979H61.52z"/>
	<path fill="#FFFFFF" d="M77.848,16.979v7.409c0,2.488,1.037,3.638,2.602,3.638c1.678,0,2.677-1.15,2.677-3.638v-7.409h2.319v7.258
		c0,3.921-2.017,5.656-5.071,5.656c-2.941,0-4.845-1.641-4.845-5.637v-7.277H77.848z"/>
	<path fill="#FFFFFF" d="M91.782,17.149c0.735-0.151,2.073-0.264,3.374-0.264c1.716,0,2.771,0.208,3.639,0.811
		c0.792,0.472,1.319,1.301,1.319,2.375c0,1.169-0.735,2.244-2.111,2.752v0.038c1.338,0.339,2.563,1.395,2.563,3.149
		c0,1.131-0.49,2.017-1.225,2.62c-0.905,0.792-2.395,1.188-4.713,1.188c-1.282,0-2.262-0.094-2.846-0.17V17.149z M94.082,22.164
		h1.188c1.603,0,2.507-0.754,2.507-1.829c0-1.188-0.905-1.734-2.375-1.734c-0.679,0-1.075,0.038-1.32,0.094V22.164z M94.082,28.008
		c0.302,0.038,0.697,0.056,1.226,0.056c1.489,0,2.809-0.565,2.809-2.13c0-1.471-1.282-2.074-2.884-2.074h-1.15V28.008z"/>
	<path fill="#FFFFFF" d="M122.664,30.93c-1.093,0.528-2.111,0.716-3.412,0.716c-3.111,0-5.806-2.244-5.806-5.919
		c0-3.846,2.752-7.202,6.975-7.202c3.318,0,5.6,2.3,5.6,5.449c0,2.79-1.565,4.486-3.469,4.486c-0.83,0-1.49-0.471-1.527-1.545
		h-0.057c-0.622,1.036-1.47,1.545-2.526,1.545c-1.169,0-2.093-0.905-2.093-2.413c0-2.318,1.772-4.43,4.449-4.43
		c0.829,0,1.659,0.188,2.149,0.434l-0.604,3.45c-0.226,1.263-0.057,1.848,0.509,1.848c0.886,0.038,1.923-1.113,1.923-3.281
		c0-2.602-1.603-4.505-4.525-4.505c-2.979,0-5.524,2.319-5.524,6.033c0,3.148,2.036,4.996,4.826,4.996
		c1.019,0,2.036-0.208,2.791-0.623L122.664,30.93z M121.288,22.993c-0.188-0.056-0.434-0.113-0.754-0.113
		c-1.433,0-2.564,1.395-2.564,2.998c0,0.773,0.359,1.301,1.056,1.301c0.886,0,1.734-1.131,1.923-2.243L121.288,22.993z"/>
	<path fill="#FFFFFF" d="M149.57,29.102c-0.811,0.301-2.394,0.716-4.091,0.716c-2.149,0-3.77-0.547-4.977-1.696
		c-1.131-1.075-1.791-2.753-1.772-4.676c0-4.015,2.865-6.598,7.069-6.598c1.565,0,2.791,0.32,3.375,0.604l-0.509,1.866
		c-0.697-0.302-1.546-0.547-2.884-0.547c-2.715,0-4.619,1.603-4.619,4.562c0,2.885,1.772,4.601,4.412,4.601
		c0.829,0,1.451-0.114,1.753-0.264v-3.167h-2.243v-1.829h4.487V29.102z"/>
	<path fill="#FFFFFF" d="M164.729,29.309c-0.547,0.283-1.753,0.565-3.28,0.565c-4.035,0-6.485-2.526-6.485-6.391
		c0-4.186,2.903-6.711,6.787-6.711c1.527,0,2.62,0.32,3.091,0.565l-0.509,1.847c-0.603-0.264-1.433-0.49-2.489-0.49
		c-2.583,0-4.449,1.621-4.449,4.675c0,2.79,1.64,4.581,4.431,4.581c0.942,0,1.922-0.188,2.526-0.471L164.729,29.309z"/>
	<path fill="#FFFFFF" d="M173.195,18.921h-3.62v-1.942h9.596v1.942h-3.657v10.765h-2.319V18.921z"/>
</g>
</svg>
